<svg aria-roledescription="er" role="graphics-document document" viewBox="-11.74428939819336 0 1557.212646484375 441" style="max-width: 1557.212646484375px;" xmlns="http://www.w3.org/2000/svg" width="100%" id="mermaidSvgChart"><style>#mermaidSvgChart{font-family:"trebuchet ms",verdana,arial,sans-serif;font-size:16px;fill:#ccc;}#mermaidSvgChart .error-icon{fill:#a44141;}#mermaidSvgChart .error-text{fill:#ddd;stroke:#ddd;}#mermaidSvgChart .edge-thickness-normal{stroke-width:2px;}#mermaidSvgChart .edge-thickness-thick{stroke-width:3.5px;}#mermaidSvgChart .edge-pattern-solid{stroke-dasharray:0;}#mermaidSvgChart .edge-pattern-dashed{stroke-dasharray:3;}#mermaidSvgChart .edge-pattern-dotted{stroke-dasharray:2;}#mermaidSvgChart .marker{fill:lightgrey;stroke:lightgrey;}#mermaidSvgChart .marker.cross{stroke:lightgrey;}#mermaidSvgChart svg{font-family:"trebuchet ms",verdana,arial,sans-serif;font-size:16px;}#mermaidSvgChart .entityBox{fill:#1f2020;stroke:#81B1DB;}#mermaidSvgChart .attributeBoxOdd{fill:hsl(0, 0%, 32%);stroke:#81B1DB;}#mermaidSvgChart .attributeBoxEven{fill:hsl(0, 0%, 22%);stroke:#81B1DB;}#mermaidSvgChart .relationshipLabelBox{fill:hsl(20, 1.5873015873%, 12.3529411765%);opacity:0.7;background-color:hsl(20, 1.5873015873%, 12.3529411765%);}#mermaidSvgChart .relationshipLabelBox rect{opacity:0.5;}#mermaidSvgChart .relationshipLine{stroke:lightgrey;}#mermaidSvgChart .entityTitleText{text-anchor:middle;font-size:18px;fill:#ccc;}#mermaidSvgChart :root{--mermaid-font-family:"trebuchet ms",verdana,arial,sans-serif;}</style><g></g><defs><marker orient="auto" markerHeight="18" markerWidth="18" refY="9" refX="0" id="ONLY_ONE_START"><path d="M9,0 L9,18 M15,0 L15,18" fill="none" stroke="gray"></path></marker></defs><defs><marker orient="auto" markerHeight="18" markerWidth="18" refY="9" refX="18" id="ONLY_ONE_END"><path d="M3,0 L3,18 M9,0 L9,18" fill="none" stroke="gray"></path></marker></defs><defs><marker orient="auto" markerHeight="18" markerWidth="30" refY="9" refX="0" id="ZERO_OR_ONE_START"><circle r="6" cy="9" cx="21" fill="white" stroke="gray"></circle><path d="M9,0 L9,18" fill="none" stroke="gray"></path></marker></defs><defs><marker orient="auto" markerHeight="18" markerWidth="30" refY="9" refX="30" id="ZERO_OR_ONE_END"><circle r="6" cy="9" cx="9" fill="white" stroke="gray"></circle><path d="M21,0 L21,18" fill="none" stroke="gray"></path></marker></defs><defs><marker orient="auto" markerHeight="36" markerWidth="45" refY="18" refX="18" id="ONE_OR_MORE_START"><path d="M0,18 Q 18,0 36,18 Q 18,36 0,18 M42,9 L42,27" fill="none" stroke="gray"></path></marker></defs><defs><marker orient="auto" markerHeight="36" markerWidth="45" refY="18" refX="27" id="ONE_OR_MORE_END"><path d="M3,9 L3,27 M9,18 Q27,0 45,18 Q27,36 9,18" fill="none" stroke="gray"></path></marker></defs><defs><marker orient="auto" markerHeight="36" markerWidth="57" refY="18" refX="18" id="ZERO_OR_MORE_START"><circle r="6" cy="18" cx="48" fill="white" stroke="gray"></circle><path d="M0,18 Q18,0 36,18 Q18,36 0,18" fill="none" stroke="gray"></path></marker></defs><defs><marker orient="auto" markerHeight="36" markerWidth="57" refY="18" refX="39" id="ZERO_OR_MORE_END"><circle r="6" cy="18" cx="9" fill="white" stroke="gray"></circle><path d="M21,18 Q39,0 57,18 Q39,36 21,18" fill="none" stroke="gray"></path></marker></defs><path style="stroke: gray; fill: none;" marker-start="url(#ONLY_ONE_START)" marker-end="url(#ONE_OR_MORE_END)" d="M84.337,113L73.338,121.333C62.338,129.667,40.34,146.333,33.527,163C26.715,179.667,35.088,196.333,39.275,204.667L43.462,213" class="er relationshipLine"></path><path style="stroke: gray; fill: none;" marker-start="url(#ONLY_ONE_START)" marker-end="url(#ONE_OR_MORE_END)" d="M207.199,86.572L246.218,99.31C285.237,112.048,363.275,137.524,406.244,162.429C449.214,187.333,457.114,211.667,461.064,223.833L465.014,236" class="er relationshipLine"></path><path style="stroke: gray; fill: none;" marker-start="url(#ONLY_ONE_START)" marker-end="url(#ONE_OR_MORE_END)" d="M389.086,88.415L354.209,100.846C319.333,113.277,249.58,138.138,210.152,158.903C170.724,179.667,161.621,196.333,157.069,204.667L152.517,213" class="er relationshipLine"></path><path style="stroke: gray; fill: none;" marker-start="url(#ONLY_ONE_START)" marker-end="url(#ONE_OR_MORE_END)" d="M512.058,87.523L548.848,100.103C585.639,112.682,659.221,137.841,696.011,168.337C732.802,198.833,732.802,234.667,732.802,252.583L732.802,270.5" class="er relationshipLine"></path><path style="stroke: gray; fill: none;" marker-start="url(#ONLY_ONE_START)" marker-end="url(#ONE_OR_MORE_END)" d="M612.058,84.359L566.934,97.466C521.809,110.573,431.561,136.786,358.123,167.647C284.684,198.509,228.055,234.017,199.74,251.771L171.425,269.526" class="er relationshipLine"></path><path style="stroke: gray; fill: none;" marker-start="url(#ONLY_ONE_START)" marker-end="url(#ONE_OR_MORE_END)" d="M735.03,91.758L763.934,103.632C792.838,115.505,850.647,139.253,916.18,171.552C981.714,203.852,1054.973,244.703,1091.602,265.129L1128.231,285.555" class="er relationshipLine"></path><path style="stroke: gray; fill: none;" marker-start="url(#ONLY_ONE_START)" marker-end="url(#ONE_OR_MORE_END)" d="M840.646,85.605L794.214,98.504C747.783,111.404,654.92,137.202,602.9,162.268C550.879,187.333,539.701,211.667,534.112,223.833L528.523,236" class="er relationshipLine"></path><path style="stroke: gray; fill: none;" marker-start="url(#ONLY_ONE_START)" marker-end="url(#ONE_OR_MORE_END)" d="M978.187,106.924L994.087,116.27C1009.986,125.616,1041.785,144.308,1071.985,173.487C1102.184,202.667,1130.785,242.333,1145.085,262.167L1159.386,282" class="er relationshipLine"></path><path style="stroke: gray; fill: none;" marker-start="url(#ONLY_ONE_START)" marker-end="url(#ONE_OR_MORE_END)" d="M1234.622,101.5L1234.622,111.75C1234.622,122,1234.622,142.5,1228.182,172.583C1221.743,202.667,1208.864,242.333,1202.425,262.167L1195.985,282" class="er relationshipLine"></path><path style="stroke: gray; fill: none;" marker-start="url(#ONLY_ONE_START)" marker-end="url(#ONE_OR_MORE_END)" d="M1234.622,101.5L1234.622,111.75C1234.622,122,1234.622,142.5,1228.182,172.583C1221.743,202.667,1208.864,242.333,1202.425,262.167L1195.985,282" class="er relationshipLine"></path><path style="stroke: gray; fill: none;" marker-start="url(#ONLY_ONE_START)" marker-end="url(#ONE_OR_MORE_END)" d="M1456.698,113L1456.698,121.333C1456.698,129.667,1456.698,146.333,1420.75,175.014C1384.802,203.694,1312.907,244.388,1276.96,264.735L1241.012,285.082" class="er relationshipLine"></path><path style="stroke: gray; fill: none;" marker-start="url(#ONLY_ONE_START)" marker-end="url(#ONE_OR_MORE_END)" d="M1456.698,113L1456.698,121.333C1456.698,129.667,1456.698,146.333,1420.75,175.014C1384.802,203.694,1312.907,244.388,1276.96,264.735L1241.012,285.082" class="er relationshipLine"></path><g transform="translate(20,213 )" id="entity-dboPokemon-89ace977-66cb-5f45-9367-33a050ab232d"><rect height="208" width="151.4253692626953" y="0" x="0" class="er entityBox"></rect><text style="dominant-baseline: middle; text-anchor: middle; font-size: 12px;" transform="translate(75.71268463134766,12)" y="0" x="0" id="text-entity-dboPokemon-89ace977-66cb-5f45-9367-33a050ab232d" class="er entityLabel">dbo.Pokemon</text><rect height="23" width="48.89811706542969" y="24" x="0" class="er attributeBoxOdd"></rect><text style="dominant-baseline: middle; font-size: 10.2px;" transform="translate(5,35.5)" y="0" x="0" id="text-entity-dboPokemon-89ace977-66cb-5f45-9367-33a050ab232d-attr-1-type" class="er entityLabel">int</text><rect height="23" width="79.09249877929688" y="24" x="48.89811706542969" class="er attributeBoxOdd"></rect><text style="dominant-baseline: middle; font-size: 10.2px;" transform="translate(53.89811706542969,35.5)" y="0" x="0" id="text-entity-dboPokemon-89ace977-66cb-5f45-9367-33a050ab232d-attr-1-name" class="er entityLabel">pokemonid</text><rect height="23" width="23.43475341796875" y="24" x="127.99061584472656" class="er attributeBoxOdd"></rect><text style="dominant-baseline: middle; font-size: 10.2px;" transform="translate(132.99061584472656,35.5)" y="0" x="0" id="text-entity-dboPokemon-89ace977-66cb-5f45-9367-33a050ab232d-attr-1-comment" class="er entityLabel">PK</text><rect height="23" width="48.89811706542969" y="47" x="0" class="er attributeBoxEven"></rect><text style="dominant-baseline: middle; font-size: 10.2px;" transform="translate(5,58.5)" y="0" x="0" id="text-entity-dboPokemon-89ace977-66cb-5f45-9367-33a050ab232d-attr-2-type" class="er entityLabel">char(20)</text><rect height="23" width="79.09249877929688" y="47" x="48.89811706542969" class="er attributeBoxEven"></rect><text style="dominant-baseline: middle; font-size: 10.2px;" transform="translate(53.89811706542969,58.5)" y="0" x="0" id="text-entity-dboPokemon-89ace977-66cb-5f45-9367-33a050ab232d-attr-2-name" class="er entityLabel">pname</text><rect height="23" width="23.43475341796875" y="47" x="127.99061584472656" class="er attributeBoxEven"></rect><text style="dominant-baseline: middle; font-size: 10.2px;" transform="translate(132.99061584472656,58.5)" y="0" x="0" id="text-entity-dboPokemon-89ace977-66cb-5f45-9367-33a050ab232d-attr-2-comment" class="er entityLabel"></text><rect height="23" width="48.89811706542969" y="70" x="0" class="er attributeBoxOdd"></rect><text style="dominant-baseline: middle; font-size: 10.2px;" transform="translate(5,81.5)" y="0" x="0" id="text-entity-dboPokemon-89ace977-66cb-5f45-9367-33a050ab232d-attr-3-type" class="er entityLabel">int</text><rect height="23" width="79.09249877929688" y="70" x="48.89811706542969" class="er attributeBoxOdd"></rect><text style="dominant-baseline: middle; font-size: 10.2px;" transform="translate(53.89811706542969,81.5)" y="0" x="0" id="text-entity-dboPokemon-89ace977-66cb-5f45-9367-33a050ab232d-attr-3-name" class="er entityLabel">hp</text><rect height="23" width="23.43475341796875" y="70" x="127.99061584472656" class="er attributeBoxOdd"></rect><text style="dominant-baseline: middle; font-size: 10.2px;" transform="translate(132.99061584472656,81.5)" y="0" x="0" id="text-entity-dboPokemon-89ace977-66cb-5f45-9367-33a050ab232d-attr-3-comment" class="er entityLabel"></text><rect height="23" width="48.89811706542969" y="93" x="0" class="er attributeBoxEven"></rect><text style="dominant-baseline: middle; font-size: 10.2px;" transform="translate(5,104.5)" y="0" x="0" id="text-entity-dboPokemon-89ace977-66cb-5f45-9367-33a050ab232d-attr-4-type" class="er entityLabel">int</text><rect height="23" width="79.09249877929688" y="93" x="48.89811706542969" class="er attributeBoxEven"></rect><text style="dominant-baseline: middle; font-size: 10.2px;" transform="translate(53.89811706542969,104.5)" y="0" x="0" id="text-entity-dboPokemon-89ace977-66cb-5f45-9367-33a050ab232d-attr-4-name" class="er entityLabel">attack</text><rect height="23" width="23.43475341796875" y="93" x="127.99061584472656" class="er attributeBoxEven"></rect><text style="dominant-baseline: middle; font-size: 10.2px;" transform="translate(132.99061584472656,104.5)" y="0" x="0" id="text-entity-dboPokemon-89ace977-66cb-5f45-9367-33a050ab232d-attr-4-comment" class="er entityLabel"></text><rect height="23" width="48.89811706542969" y="116" x="0" class="er attributeBoxOdd"></rect><text style="dominant-baseline: middle; font-size: 10.2px;" transform="translate(5,127.5)" y="0" x="0" id="text-entity-dboPokemon-89ace977-66cb-5f45-9367-33a050ab232d-attr-5-type" class="er entityLabel">int</text><rect height="23" width="79.09249877929688" y="116" x="48.89811706542969" class="er attributeBoxOdd"></rect><text style="dominant-baseline: middle; font-size: 10.2px;" transform="translate(53.89811706542969,127.5)" y="0" x="0" id="text-entity-dboPokemon-89ace977-66cb-5f45-9367-33a050ab232d-attr-5-name" class="er entityLabel">defense</text><rect height="23" width="23.43475341796875" y="116" x="127.99061584472656" class="er attributeBoxOdd"></rect><text style="dominant-baseline: middle; font-size: 10.2px;" transform="translate(132.99061584472656,127.5)" y="0" x="0" id="text-entity-dboPokemon-89ace977-66cb-5f45-9367-33a050ab232d-attr-5-comment" class="er entityLabel"></text><rect height="23" width="48.89811706542969" y="139" x="0" class="er attributeBoxEven"></rect><text style="dominant-baseline: middle; font-size: 10.2px;" transform="translate(5,150.5)" y="0" x="0" id="text-entity-dboPokemon-89ace977-66cb-5f45-9367-33a050ab232d-attr-6-type" class="er entityLabel">int</text><rect height="23" width="79.09249877929688" y="139" x="48.89811706542969" class="er attributeBoxEven"></rect><text style="dominant-baseline: middle; font-size: 10.2px;" transform="translate(53.89811706542969,150.5)" y="0" x="0" id="text-entity-dboPokemon-89ace977-66cb-5f45-9367-33a050ab232d-attr-6-name" class="er entityLabel">specialattack</text><rect height="23" width="23.43475341796875" y="139" x="127.99061584472656" class="er attributeBoxEven"></rect><text style="dominant-baseline: middle; font-size: 10.2px;" transform="translate(132.99061584472656,150.5)" y="0" x="0" id="text-entity-dboPokemon-89ace977-66cb-5f45-9367-33a050ab232d-attr-6-comment" class="er entityLabel"></text><rect height="23" width="48.89811706542969" y="162" x="0" class="er attributeBoxOdd"></rect><text style="dominant-baseline: middle; font-size: 10.2px;" transform="translate(5,173.5)" y="0" x="0" id="text-entity-dboPokemon-89ace977-66cb-5f45-9367-33a050ab232d-attr-7-type" class="er entityLabel">int</text><rect height="23" width="79.09249877929688" y="162" x="48.89811706542969" class="er attributeBoxOdd"></rect><text style="dominant-baseline: middle; font-size: 10.2px;" transform="translate(53.89811706542969,173.5)" y="0" x="0" id="text-entity-dboPokemon-89ace977-66cb-5f45-9367-33a050ab232d-attr-7-name" class="er entityLabel">specialdefense</text><rect height="23" width="23.43475341796875" y="162" x="127.99061584472656" class="er attributeBoxOdd"></rect><text style="dominant-baseline: middle; font-size: 10.2px;" transform="translate(132.99061584472656,173.5)" y="0" x="0" id="text-entity-dboPokemon-89ace977-66cb-5f45-9367-33a050ab232d-attr-7-comment" class="er entityLabel"></text><rect height="23" width="48.89811706542969" y="185" x="0" class="er attributeBoxEven"></rect><text style="dominant-baseline: middle; font-size: 10.2px;" transform="translate(5,196.5)" y="0" x="0" id="text-entity-dboPokemon-89ace977-66cb-5f45-9367-33a050ab232d-attr-8-type" class="er entityLabel">int</text><rect height="23" width="79.09249877929688" y="185" x="48.89811706542969" class="er attributeBoxEven"></rect><text style="dominant-baseline: middle; font-size: 10.2px;" transform="translate(53.89811706542969,196.5)" y="0" x="0" id="text-entity-dboPokemon-89ace977-66cb-5f45-9367-33a050ab232d-attr-8-name" class="er entityLabel">speed</text><rect height="23" width="23.43475341796875" y="185" x="127.99061584472656" class="er attributeBoxEven"></rect><text style="dominant-baseline: middle; font-size: 10.2px;" transform="translate(132.99061584472656,196.5)" y="0" x="0" id="text-entity-dboPokemon-89ace977-66cb-5f45-9367-33a050ab232d-attr-8-comment" class="er entityLabel"></text></g><g transform="translate(1128.231258392334,282 )" id="entity-dboTypes-f680d1fa-7d0c-5de0-921f-d967ea15302c"><rect height="70" width="112.78089904785156" y="0" x="0" class="er entityBox"></rect><text style="dominant-baseline: middle; text-anchor: middle; font-size: 12px;" transform="translate(56.39044952392578,12)" y="0" x="0" id="text-entity-dboTypes-f680d1fa-7d0c-5de0-921f-d967ea15302c" class="er entityLabel">dbo.Types</text><rect height="23" width="48.89811706542969" y="24" x="0" class="er attributeBoxOdd"></rect><text style="dominant-baseline: middle; font-size: 10.2px;" transform="translate(5,35.5)" y="0" x="0" id="text-entity-dboTypes-f680d1fa-7d0c-5de0-921f-d967ea15302c-attr-1-type" class="er entityLabel">int</text><rect height="23" width="40.448028564453125" y="24" x="48.89811706542969" class="er attributeBoxOdd"></rect><text style="dominant-baseline: middle; font-size: 10.2px;" transform="translate(53.89811706542969,35.5)" y="0" x="0" id="text-entity-dboTypes-f680d1fa-7d0c-5de0-921f-d967ea15302c-attr-1-name" class="er entityLabel">typeid</text><rect height="23" width="23.43475341796875" y="24" x="89.34614562988281" class="er attributeBoxOdd"></rect><text style="dominant-baseline: middle; font-size: 10.2px;" transform="translate(94.34614562988281,35.5)" y="0" x="0" id="text-entity-dboTypes-f680d1fa-7d0c-5de0-921f-d967ea15302c-attr-1-comment" class="er entityLabel">PK</text><rect height="23" width="48.89811706542969" y="47" x="0" class="er attributeBoxEven"></rect><text style="dominant-baseline: middle; font-size: 10.2px;" transform="translate(5,58.5)" y="0" x="0" id="text-entity-dboTypes-f680d1fa-7d0c-5de0-921f-d967ea15302c-attr-2-type" class="er entityLabel">char(10)</text><rect height="23" width="40.448028564453125" y="47" x="48.89811706542969" class="er attributeBoxEven"></rect><text style="dominant-baseline: middle; font-size: 10.2px;" transform="translate(53.89811706542969,58.5)" y="0" x="0" id="text-entity-dboTypes-f680d1fa-7d0c-5de0-921f-d967ea15302c-attr-2-name" class="er entityLabel">tname</text><rect height="23" width="23.43475341796875" y="47" x="89.34614562988281" class="er attributeBoxEven"></rect><text style="dominant-baseline: middle; font-size: 10.2px;" transform="translate(94.34614562988281,58.5)" y="0" x="0" id="text-entity-dboTypes-f680d1fa-7d0c-5de0-921f-d967ea15302c-attr-2-comment" class="er entityLabel"></text></g><g transform="translate(421.76880645751953,236 )" id="entity-dboMoves-e967eb86-ae86-5044-9605-368d9b3c8933"><rect height="162" width="139.08876037597656" y="0" x="0" class="er entityBox"></rect><text style="dominant-baseline: middle; text-anchor: middle; font-size: 12px;" transform="translate(69.54438018798828,12)" y="0" x="0" id="text-entity-dboMoves-e967eb86-ae86-5044-9605-368d9b3c8933" class="er entityLabel">dbo.Moves</text><rect height="23" width="54.62565612792969" y="24" x="0" class="er attributeBoxOdd"></rect><text style="dominant-baseline: middle; font-size: 10.2px;" transform="translate(5,35.5)" y="0" x="0" id="text-entity-dboMoves-e967eb86-ae86-5044-9605-368d9b3c8933-attr-1-type" class="er entityLabel">int</text><rect height="23" width="61.028350830078125" y="24" x="54.62565612792969" class="er attributeBoxOdd"></rect><text style="dominant-baseline: middle; font-size: 10.2px;" transform="translate(59.62565612792969,35.5)" y="0" x="0" id="text-entity-dboMoves-e967eb86-ae86-5044-9605-368d9b3c8933-attr-1-name" class="er entityLabel">moveid</text><rect height="23" width="23.43475341796875" y="24" x="115.65400695800781" class="er attributeBoxOdd"></rect><text style="dominant-baseline: middle; font-size: 10.2px;" transform="translate(120.65400695800781,35.5)" y="0" x="0" id="text-entity-dboMoves-e967eb86-ae86-5044-9605-368d9b3c8933-attr-1-comment" class="er entityLabel">PK</text><rect height="23" width="54.62565612792969" y="47" x="0" class="er attributeBoxEven"></rect><text style="dominant-baseline: middle; font-size: 10.2px;" transform="translate(5,58.5)" y="0" x="0" id="text-entity-dboMoves-e967eb86-ae86-5044-9605-368d9b3c8933-attr-2-type" class="er entityLabel">char(20)</text><rect height="23" width="61.028350830078125" y="47" x="54.62565612792969" class="er attributeBoxEven"></rect><text style="dominant-baseline: middle; font-size: 10.2px;" transform="translate(59.62565612792969,58.5)" y="0" x="0" id="text-entity-dboMoves-e967eb86-ae86-5044-9605-368d9b3c8933-attr-2-name" class="er entityLabel">mname</text><rect height="23" width="23.43475341796875" y="47" x="115.65400695800781" class="er attributeBoxEven"></rect><text style="dominant-baseline: middle; font-size: 10.2px;" transform="translate(120.65400695800781,58.5)" y="0" x="0" id="text-entity-dboMoves-e967eb86-ae86-5044-9605-368d9b3c8933-attr-2-comment" class="er entityLabel"></text><rect height="23" width="54.62565612792969" y="70" x="0" class="er attributeBoxOdd"></rect><text style="dominant-baseline: middle; font-size: 10.2px;" transform="translate(5,81.5)" y="0" x="0" id="text-entity-dboMoves-e967eb86-ae86-5044-9605-368d9b3c8933-attr-3-type" class="er entityLabel">char(200)</text><rect height="23" width="61.028350830078125" y="70" x="54.62565612792969" class="er attributeBoxOdd"></rect><text style="dominant-baseline: middle; font-size: 10.2px;" transform="translate(59.62565612792969,81.5)" y="0" x="0" id="text-entity-dboMoves-e967eb86-ae86-5044-9605-368d9b3c8933-attr-3-name" class="er entityLabel">description</text><rect height="23" width="23.43475341796875" y="70" x="115.65400695800781" class="er attributeBoxOdd"></rect><text style="dominant-baseline: middle; font-size: 10.2px;" transform="translate(120.65400695800781,81.5)" y="0" x="0" id="text-entity-dboMoves-e967eb86-ae86-5044-9605-368d9b3c8933-attr-3-comment" class="er entityLabel"></text><rect height="23" width="54.62565612792969" y="93" x="0" class="er attributeBoxEven"></rect><text style="dominant-baseline: middle; font-size: 10.2px;" transform="translate(5,104.5)" y="0" x="0" id="text-entity-dboMoves-e967eb86-ae86-5044-9605-368d9b3c8933-attr-4-type" class="er entityLabel">int</text><rect height="23" width="61.028350830078125" y="93" x="54.62565612792969" class="er attributeBoxEven"></rect><text style="dominant-baseline: middle; font-size: 10.2px;" transform="translate(59.62565612792969,104.5)" y="0" x="0" id="text-entity-dboMoves-e967eb86-ae86-5044-9605-368d9b3c8933-attr-4-name" class="er entityLabel">category</text><rect height="23" width="23.43475341796875" y="93" x="115.65400695800781" class="er attributeBoxEven"></rect><text style="dominant-baseline: middle; font-size: 10.2px;" transform="translate(120.65400695800781,104.5)" y="0" x="0" id="text-entity-dboMoves-e967eb86-ae86-5044-9605-368d9b3c8933-attr-4-comment" class="er entityLabel"></text><rect height="23" width="54.62565612792969" y="116" x="0" class="er attributeBoxOdd"></rect><text style="dominant-baseline: middle; font-size: 10.2px;" transform="translate(5,127.5)" y="0" x="0" id="text-entity-dboMoves-e967eb86-ae86-5044-9605-368d9b3c8933-attr-5-type" class="er entityLabel">int</text><rect height="23" width="61.028350830078125" y="116" x="54.62565612792969" class="er attributeBoxOdd"></rect><text style="dominant-baseline: middle; font-size: 10.2px;" transform="translate(59.62565612792969,127.5)" y="0" x="0" id="text-entity-dboMoves-e967eb86-ae86-5044-9605-368d9b3c8933-attr-5-name" class="er entityLabel">power</text><rect height="23" width="23.43475341796875" y="116" x="115.65400695800781" class="er attributeBoxOdd"></rect><text style="dominant-baseline: middle; font-size: 10.2px;" transform="translate(120.65400695800781,127.5)" y="0" x="0" id="text-entity-dboMoves-e967eb86-ae86-5044-9605-368d9b3c8933-attr-5-comment" class="er entityLabel"></text><rect height="23" width="54.62565612792969" y="139" x="0" class="er attributeBoxEven"></rect><text style="dominant-baseline: middle; font-size: 10.2px;" transform="translate(5,150.5)" y="0" x="0" id="text-entity-dboMoves-e967eb86-ae86-5044-9605-368d9b3c8933-attr-6-type" class="er entityLabel">int</text><rect height="23" width="61.028350830078125" y="139" x="54.62565612792969" class="er attributeBoxEven"></rect><text style="dominant-baseline: middle; font-size: 10.2px;" transform="translate(59.62565612792969,150.5)" y="0" x="0" id="text-entity-dboMoves-e967eb86-ae86-5044-9605-368d9b3c8933-attr-6-name" class="er entityLabel">accuracy</text><rect height="23" width="23.43475341796875" y="139" x="115.65400695800781" class="er attributeBoxEven"></rect><text style="dominant-baseline: middle; font-size: 10.2px;" transform="translate(120.65400695800781,150.5)" y="0" x="0" id="text-entity-dboMoves-e967eb86-ae86-5044-9605-368d9b3c8933-attr-6-comment" class="er entityLabel"></text></g><g transform="translate(660.8575668334961,270.5 )" id="entity-dboAbilities-53397c03-6210-5965-8caa-a06808efbbf3"><rect height="93" width="143.88880920410156" y="0" x="0" class="er entityBox"></rect><text style="dominant-baseline: middle; text-anchor: middle; font-size: 12px;" transform="translate(71.94440460205078,12)" y="0" x="0" id="text-entity-dboAbilities-53397c03-6210-5965-8caa-a06808efbbf3" class="er entityLabel">dbo.Abilities</text><rect height="23" width="75.12416076660156" y="24" x="0" class="er attributeBoxOdd"></rect><text style="dominant-baseline: middle; font-size: 10.2px;" transform="translate(5,35.5)" y="0" x="0" id="text-entity-dboAbilities-53397c03-6210-5965-8caa-a06808efbbf3-attr-1-type" class="er entityLabel">int</text><rect height="23" width="45.32989501953125" y="24" x="75.12416076660156" class="er attributeBoxOdd"></rect><text style="dominant-baseline: middle; font-size: 10.2px;" transform="translate(80.12416076660156,35.5)" y="0" x="0" id="text-entity-dboAbilities-53397c03-6210-5965-8caa-a06808efbbf3-attr-1-name" class="er entityLabel">abilityid</text><rect height="23" width="23.43475341796875" y="24" x="120.45405578613281" class="er attributeBoxOdd"></rect><text style="dominant-baseline: middle; font-size: 10.2px;" transform="translate(125.45405578613281,35.5)" y="0" x="0" id="text-entity-dboAbilities-53397c03-6210-5965-8caa-a06808efbbf3-attr-1-comment" class="er entityLabel">PK</text><rect height="23" width="75.12416076660156" y="47" x="0" class="er attributeBoxEven"></rect><text style="dominant-baseline: middle; font-size: 10.2px;" transform="translate(5,58.5)" y="0" x="0" id="text-entity-dboAbilities-53397c03-6210-5965-8caa-a06808efbbf3-attr-2-type" class="er entityLabel">char(20)</text><rect height="23" width="45.32989501953125" y="47" x="75.12416076660156" class="er attributeBoxEven"></rect><text style="dominant-baseline: middle; font-size: 10.2px;" transform="translate(80.12416076660156,58.5)" y="0" x="0" id="text-entity-dboAbilities-53397c03-6210-5965-8caa-a06808efbbf3-attr-2-name" class="er entityLabel">aname</text><rect height="23" width="23.43475341796875" y="47" x="120.45405578613281" class="er attributeBoxEven"></rect><text style="dominant-baseline: middle; font-size: 10.2px;" transform="translate(125.45405578613281,58.5)" y="0" x="0" id="text-entity-dboAbilities-53397c03-6210-5965-8caa-a06808efbbf3-attr-2-comment" class="er entityLabel"></text><rect height="23" width="75.12416076660156" y="70" x="0" class="er attributeBoxOdd"></rect><text style="dominant-baseline: middle; font-size: 10.2px;" transform="translate(5,81.5)" y="0" x="0" id="text-entity-dboAbilities-53397c03-6210-5965-8caa-a06808efbbf3-attr-3-type" class="er entityLabel">varchar(3000)</text><rect height="23" width="45.32989501953125" y="70" x="75.12416076660156" class="er attributeBoxOdd"></rect><text style="dominant-baseline: middle; font-size: 10.2px;" transform="translate(80.12416076660156,81.5)" y="0" x="0" id="text-entity-dboAbilities-53397c03-6210-5965-8caa-a06808efbbf3-attr-3-name" class="er entityLabel">effect</text><rect height="23" width="23.43475341796875" y="70" x="120.45405578613281" class="er attributeBoxOdd"></rect><text style="dominant-baseline: middle; font-size: 10.2px;" transform="translate(125.45405578613281,81.5)" y="0" x="0" id="text-entity-dboAbilities-53397c03-6210-5965-8caa-a06808efbbf3-attr-3-comment" class="er entityLabel"></text></g><g transform="translate(84.22669982910156,20 )" id="entity-dbolearns-6f9eaf14-be4e-507d-afa5-1fcb1a14fb78"><rect height="93" width="122.97196960449219" y="0" x="0" class="er entityBox"></rect><text style="dominant-baseline: middle; text-anchor: middle; font-size: 12px;" transform="translate(61.485984802246094,12)" y="0" x="0" id="text-entity-dbolearns-6f9eaf14-be4e-507d-afa5-1fcb1a14fb78" class="er entityLabel">dbo.learns</text><rect height="23" width="22.10321044921875" y="24" x="0" class="er attributeBoxOdd"></rect><text style="dominant-baseline: middle; font-size: 10.2px;" transform="translate(5,35.5)" y="0" x="0" id="text-entity-dbolearns-6f9eaf14-be4e-507d-afa5-1fcb1a14fb78-attr-1-type" class="er entityLabel">int</text><rect height="23" width="60.873992919921875" y="24" x="22.10321044921875" class="er attributeBoxOdd"></rect><text style="dominant-baseline: middle; font-size: 10.2px;" transform="translate(27.10321044921875,35.5)" y="0" x="0" id="text-entity-dbolearns-6f9eaf14-be4e-507d-afa5-1fcb1a14fb78-attr-1-name" class="er entityLabel">pokemonid</text><rect height="23" width="39.99476623535156" y="24" x="82.97720336914062" class="er attributeBoxOdd"></rect><text style="dominant-baseline: middle; font-size: 10.2px;" transform="translate(87.97720336914062,35.5)" y="0" x="0" id="text-entity-dbolearns-6f9eaf14-be4e-507d-afa5-1fcb1a14fb78-attr-1-comment" class="er entityLabel">FK, PK</text><rect height="23" width="22.10321044921875" y="47" x="0" class="er attributeBoxEven"></rect><text style="dominant-baseline: middle; font-size: 10.2px;" transform="translate(5,58.5)" y="0" x="0" id="text-entity-dbolearns-6f9eaf14-be4e-507d-afa5-1fcb1a14fb78-attr-2-type" class="er entityLabel">int</text><rect height="23" width="60.873992919921875" y="47" x="22.10321044921875" class="er attributeBoxEven"></rect><text style="dominant-baseline: middle; font-size: 10.2px;" transform="translate(27.10321044921875,58.5)" y="0" x="0" id="text-entity-dbolearns-6f9eaf14-be4e-507d-afa5-1fcb1a14fb78-attr-2-name" class="er entityLabel">moveid</text><rect height="23" width="39.99476623535156" y="47" x="82.97720336914062" class="er attributeBoxEven"></rect><text style="dominant-baseline: middle; font-size: 10.2px;" transform="translate(87.97720336914062,58.5)" y="0" x="0" id="text-entity-dbolearns-6f9eaf14-be4e-507d-afa5-1fcb1a14fb78-attr-2-comment" class="er entityLabel">FK, PK</text><rect height="23" width="22.10321044921875" y="70" x="0" class="er attributeBoxOdd"></rect><text style="dominant-baseline: middle; font-size: 10.2px;" transform="translate(5,81.5)" y="0" x="0" id="text-entity-dbolearns-6f9eaf14-be4e-507d-afa5-1fcb1a14fb78-attr-3-type" class="er entityLabel">int</text><rect height="23" width="60.873992919921875" y="70" x="22.10321044921875" class="er attributeBoxOdd"></rect><text style="dominant-baseline: middle; font-size: 10.2px;" transform="translate(27.10321044921875,81.5)" y="0" x="0" id="text-entity-dbolearns-6f9eaf14-be4e-507d-afa5-1fcb1a14fb78-attr-3-name" class="er entityLabel">atlevel</text><rect height="23" width="39.99476623535156" y="70" x="82.97720336914062" class="er attributeBoxOdd"></rect><text style="dominant-baseline: middle; font-size: 10.2px;" transform="translate(87.97720336914062,81.5)" y="0" x="0" id="text-entity-dbolearns-6f9eaf14-be4e-507d-afa5-1fcb1a14fb78-attr-3-comment" class="er entityLabel"></text></g><g transform="translate(389.08560943603516,31.5 )" id="entity-dbopossesses-9b45a228-9d77-5525-a29e-1057ab4d0fbc"><rect height="70" width="122.97196960449219" y="0" x="0" class="er entityBox"></rect><text style="dominant-baseline: middle; text-anchor: middle; font-size: 12px;" transform="translate(61.485984802246094,12)" y="0" x="0" id="text-entity-dbopossesses-9b45a228-9d77-5525-a29e-1057ab4d0fbc" class="er entityLabel">dbo.possesses</text><rect height="23" width="22.10321044921875" y="24" x="0" class="er attributeBoxOdd"></rect><text style="dominant-baseline: middle; font-size: 10.2px;" transform="translate(5,35.5)" y="0" x="0" id="text-entity-dbopossesses-9b45a228-9d77-5525-a29e-1057ab4d0fbc-attr-1-type" class="er entityLabel">int</text><rect height="23" width="60.873992919921875" y="24" x="22.10321044921875" class="er attributeBoxOdd"></rect><text style="dominant-baseline: middle; font-size: 10.2px;" transform="translate(27.10321044921875,35.5)" y="0" x="0" id="text-entity-dbopossesses-9b45a228-9d77-5525-a29e-1057ab4d0fbc-attr-1-name" class="er entityLabel">pokemonid</text><rect height="23" width="39.99476623535156" y="24" x="82.97720336914062" class="er attributeBoxOdd"></rect><text style="dominant-baseline: middle; font-size: 10.2px;" transform="translate(87.97720336914062,35.5)" y="0" x="0" id="text-entity-dbopossesses-9b45a228-9d77-5525-a29e-1057ab4d0fbc-attr-1-comment" class="er entityLabel">FK, PK</text><rect height="23" width="22.10321044921875" y="47" x="0" class="er attributeBoxEven"></rect><text style="dominant-baseline: middle; font-size: 10.2px;" transform="translate(5,58.5)" y="0" x="0" id="text-entity-dbopossesses-9b45a228-9d77-5525-a29e-1057ab4d0fbc-attr-2-type" class="er entityLabel">int</text><rect height="23" width="60.873992919921875" y="47" x="22.10321044921875" class="er attributeBoxEven"></rect><text style="dominant-baseline: middle; font-size: 10.2px;" transform="translate(27.10321044921875,58.5)" y="0" x="0" id="text-entity-dbopossesses-9b45a228-9d77-5525-a29e-1057ab4d0fbc-attr-2-name" class="er entityLabel">abilityid</text><rect height="23" width="39.99476623535156" y="47" x="82.97720336914062" class="er attributeBoxEven"></rect><text style="dominant-baseline: middle; font-size: 10.2px;" transform="translate(87.97720336914062,58.5)" y="0" x="0" id="text-entity-dbopossesses-9b45a228-9d77-5525-a29e-1057ab4d0fbc-attr-2-comment" class="er entityLabel">FK, PK</text></g><g transform="translate(612.0575790405273,31.5 )" id="entity-dbohas-77ab34ed-ceb9-59f2-9223-bc37b028a409"><rect height="70" width="122.97196960449219" y="0" x="0" class="er entityBox"></rect><text style="dominant-baseline: middle; text-anchor: middle; font-size: 12px;" transform="translate(61.485984802246094,12)" y="0" x="0" id="text-entity-dbohas-77ab34ed-ceb9-59f2-9223-bc37b028a409" class="er entityLabel">dbo.has</text><rect height="23" width="22.10321044921875" y="24" x="0" class="er attributeBoxOdd"></rect><text style="dominant-baseline: middle; font-size: 10.2px;" transform="translate(5,35.5)" y="0" x="0" id="text-entity-dbohas-77ab34ed-ceb9-59f2-9223-bc37b028a409-attr-1-type" class="er entityLabel">int</text><rect height="23" width="60.873992919921875" y="24" x="22.10321044921875" class="er attributeBoxOdd"></rect><text style="dominant-baseline: middle; font-size: 10.2px;" transform="translate(27.10321044921875,35.5)" y="0" x="0" id="text-entity-dbohas-77ab34ed-ceb9-59f2-9223-bc37b028a409-attr-1-name" class="er entityLabel">pokemonid</text><rect height="23" width="39.99476623535156" y="24" x="82.97720336914062" class="er attributeBoxOdd"></rect><text style="dominant-baseline: middle; font-size: 10.2px;" transform="translate(87.97720336914062,35.5)" y="0" x="0" id="text-entity-dbohas-77ab34ed-ceb9-59f2-9223-bc37b028a409-attr-1-comment" class="er entityLabel">FK, PK</text><rect height="23" width="22.10321044921875" y="47" x="0" class="er attributeBoxEven"></rect><text style="dominant-baseline: middle; font-size: 10.2px;" transform="translate(5,58.5)" y="0" x="0" id="text-entity-dbohas-77ab34ed-ceb9-59f2-9223-bc37b028a409-attr-2-type" class="er entityLabel">int</text><rect height="23" width="60.873992919921875" y="47" x="22.10321044921875" class="er attributeBoxEven"></rect><text style="dominant-baseline: middle; font-size: 10.2px;" transform="translate(27.10321044921875,58.5)" y="0" x="0" id="text-entity-dbohas-77ab34ed-ceb9-59f2-9223-bc37b028a409-attr-2-name" class="er entityLabel">typeid</text><rect height="23" width="39.99476623535156" y="47" x="82.97720336914062" class="er attributeBoxEven"></rect><text style="dominant-baseline: middle; font-size: 10.2px;" transform="translate(87.97720336914062,58.5)" y="0" x="0" id="text-entity-dbohas-77ab34ed-ceb9-59f2-9223-bc37b028a409-attr-2-comment" class="er entityLabel">FK, PK</text></g><g transform="translate(840.6455383300781,20 )" id="entity-dboisof-bd530b6a-2aba-564b-add3-2656f2bab683"><rect height="93" width="137.54164123535156" y="0" x="0" class="er entityBox"></rect><text style="dominant-baseline: middle; text-anchor: middle; font-size: 12px;" transform="translate(68.77082061767578,12)" y="0" x="0" id="text-entity-dboisof-bd530b6a-2aba-564b-add3-2656f2bab683" class="er entityLabel">dbo.is_of</text><rect height="23" width="26.796875" y="24" x="0" class="er attributeBoxOdd"></rect><text style="dominant-baseline: middle; font-size: 10.2px;" transform="translate(5,35.5)" y="0" x="0" id="text-entity-dboisof-bd530b6a-2aba-564b-add3-2656f2bab683-attr-1-type" class="er entityLabel">int</text><rect height="23" width="70.75" y="24" x="26.796875" class="er attributeBoxOdd"></rect><text style="dominant-baseline: middle; font-size: 10.2px;" transform="translate(31.796875,35.5)" y="0" x="0" id="text-entity-dboisof-bd530b6a-2aba-564b-add3-2656f2bab683-attr-1-name" class="er entityLabel">moveid</text><rect height="23" width="39.99476623535156" y="24" x="97.546875" class="er attributeBoxOdd"></rect><text style="dominant-baseline: middle; font-size: 10.2px;" transform="translate(102.546875,35.5)" y="0" x="0" id="text-entity-dboisof-bd530b6a-2aba-564b-add3-2656f2bab683-attr-1-comment" class="er entityLabel">FK, PK</text><rect height="23" width="26.796875" y="47" x="0" class="er attributeBoxEven"></rect><text style="dominant-baseline: middle; font-size: 10.2px;" transform="translate(5,58.5)" y="0" x="0" id="text-entity-dboisof-bd530b6a-2aba-564b-add3-2656f2bab683-attr-2-type" class="er entityLabel">int</text><rect height="23" width="70.75" y="47" x="26.796875" class="er attributeBoxEven"></rect><text style="dominant-baseline: middle; font-size: 10.2px;" transform="translate(31.796875,58.5)" y="0" x="0" id="text-entity-dboisof-bd530b6a-2aba-564b-add3-2656f2bab683-attr-2-name" class="er entityLabel">typeid</text><rect height="23" width="39.99476623535156" y="47" x="97.546875" class="er attributeBoxEven"></rect><text style="dominant-baseline: middle; font-size: 10.2px;" transform="translate(102.546875,58.5)" y="0" x="0" id="text-entity-dboisof-bd530b6a-2aba-564b-add3-2656f2bab683-attr-2-comment" class="er entityLabel">FK, PK</text><rect height="23" width="26.796875" y="70" x="0" class="er attributeBoxOdd"></rect><text style="dominant-baseline: middle; font-size: 10.2px;" transform="translate(5,81.5)" y="0" x="0" id="text-entity-dboisof-bd530b6a-2aba-564b-add3-2656f2bab683-attr-3-type" class="er entityLabel">real</text><rect height="23" width="70.75" y="70" x="26.796875" class="er attributeBoxOdd"></rect><text style="dominant-baseline: middle; font-size: 10.2px;" transform="translate(31.796875,81.5)" y="0" x="0" id="text-entity-dboisof-bd530b6a-2aba-564b-add3-2656f2bab683-attr-3-name" class="er entityLabel">effectiveness</text><rect height="23" width="39.99476623535156" y="70" x="97.546875" class="er attributeBoxOdd"></rect><text style="dominant-baseline: middle; font-size: 10.2px;" transform="translate(102.546875,81.5)" y="0" x="0" id="text-entity-dboisof-bd530b6a-2aba-564b-add3-2656f2bab683-attr-3-comment" class="er entityLabel"></text></g><g transform="translate(1181.3166847229004,31.5 )" id="entity-dboattacking-8c9220f6-e637-5a58-a498-a326f5a15337"><rect height="70" width="106.61004638671875" y="0" x="0" class="er entityBox"></rect><text style="dominant-baseline: middle; text-anchor: middle; font-size: 12px;" transform="translate(53.305023193359375,12)" y="0" x="0" id="text-entity-dboattacking-8c9220f6-e637-5a58-a498-a326f5a15337" class="er entityLabel">dbo.attacking</text><rect height="23" width="22.10321044921875" y="24" x="0" class="er attributeBoxOdd"></rect><text style="dominant-baseline: middle; font-size: 10.2px;" transform="translate(5,35.5)" y="0" x="0" id="text-entity-dboattacking-8c9220f6-e637-5a58-a498-a326f5a15337-attr-1-type" class="er entityLabel">int</text><rect height="23" width="44.51206970214844" y="24" x="22.10321044921875" class="er attributeBoxOdd"></rect><text style="dominant-baseline: middle; font-size: 10.2px;" transform="translate(27.10321044921875,35.5)" y="0" x="0" id="text-entity-dboattacking-8c9220f6-e637-5a58-a498-a326f5a15337-attr-1-name" class="er entityLabel">typeid1</text><rect height="23" width="39.99476623535156" y="24" x="66.61528015136719" class="er attributeBoxOdd"></rect><text style="dominant-baseline: middle; font-size: 10.2px;" transform="translate(71.61528015136719,35.5)" y="0" x="0" id="text-entity-dboattacking-8c9220f6-e637-5a58-a498-a326f5a15337-attr-1-comment" class="er entityLabel">FK, PK</text><rect height="23" width="22.10321044921875" y="47" x="0" class="er attributeBoxEven"></rect><text style="dominant-baseline: middle; font-size: 10.2px;" transform="translate(5,58.5)" y="0" x="0" id="text-entity-dboattacking-8c9220f6-e637-5a58-a498-a326f5a15337-attr-2-type" class="er entityLabel">int</text><rect height="23" width="44.51206970214844" y="47" x="22.10321044921875" class="er attributeBoxEven"></rect><text style="dominant-baseline: middle; font-size: 10.2px;" transform="translate(27.10321044921875,58.5)" y="0" x="0" id="text-entity-dboattacking-8c9220f6-e637-5a58-a498-a326f5a15337-attr-2-name" class="er entityLabel">typeid2</text><rect height="23" width="39.99476623535156" y="47" x="66.61528015136719" class="er attributeBoxEven"></rect><text style="dominant-baseline: middle; font-size: 10.2px;" transform="translate(71.61528015136719,58.5)" y="0" x="0" id="text-entity-dboattacking-8c9220f6-e637-5a58-a498-a326f5a15337-attr-2-comment" class="er entityLabel">FK, PK</text></g><g transform="translate(1387.9267311096191,20 )" id="entity-dbodefending-27d04c22-11ac-5bec-8195-8e0c8a368db7"><rect height="93" width="137.54164123535156" y="0" x="0" class="er entityBox"></rect><text style="dominant-baseline: middle; text-anchor: middle; font-size: 12px;" transform="translate(68.77082061767578,12)" y="0" x="0" id="text-entity-dbodefending-27d04c22-11ac-5bec-8195-8e0c8a368db7" class="er entityLabel">dbo.defending</text><rect height="23" width="26.796875" y="24" x="0" class="er attributeBoxOdd"></rect><text style="dominant-baseline: middle; font-size: 10.2px;" transform="translate(5,35.5)" y="0" x="0" id="text-entity-dbodefending-27d04c22-11ac-5bec-8195-8e0c8a368db7-attr-1-type" class="er entityLabel">int</text><rect height="23" width="70.75" y="24" x="26.796875" class="er attributeBoxOdd"></rect><text style="dominant-baseline: middle; font-size: 10.2px;" transform="translate(31.796875,35.5)" y="0" x="0" id="text-entity-dbodefending-27d04c22-11ac-5bec-8195-8e0c8a368db7-attr-1-name" class="er entityLabel">typeid1</text><rect height="23" width="39.99476623535156" y="24" x="97.546875" class="er attributeBoxOdd"></rect><text style="dominant-baseline: middle; font-size: 10.2px;" transform="translate(102.546875,35.5)" y="0" x="0" id="text-entity-dbodefending-27d04c22-11ac-5bec-8195-8e0c8a368db7-attr-1-comment" class="er entityLabel">FK, PK</text><rect height="23" width="26.796875" y="47" x="0" class="er attributeBoxEven"></rect><text style="dominant-baseline: middle; font-size: 10.2px;" transform="translate(5,58.5)" y="0" x="0" id="text-entity-dbodefending-27d04c22-11ac-5bec-8195-8e0c8a368db7-attr-2-type" class="er entityLabel">int</text><rect height="23" width="70.75" y="47" x="26.796875" class="er attributeBoxEven"></rect><text style="dominant-baseline: middle; font-size: 10.2px;" transform="translate(31.796875,58.5)" y="0" x="0" id="text-entity-dbodefending-27d04c22-11ac-5bec-8195-8e0c8a368db7-attr-2-name" class="er entityLabel">typeid2</text><rect height="23" width="39.99476623535156" y="47" x="97.546875" class="er attributeBoxEven"></rect><text style="dominant-baseline: middle; font-size: 10.2px;" transform="translate(102.546875,58.5)" y="0" x="0" id="text-entity-dbodefending-27d04c22-11ac-5bec-8195-8e0c8a368db7-attr-2-comment" class="er entityLabel">FK, PK</text><rect height="23" width="26.796875" y="70" x="0" class="er attributeBoxOdd"></rect><text style="dominant-baseline: middle; font-size: 10.2px;" transform="translate(5,81.5)" y="0" x="0" id="text-entity-dbodefending-27d04c22-11ac-5bec-8195-8e0c8a368db7-attr-3-type" class="er entityLabel">real</text><rect height="23" width="70.75" y="70" x="26.796875" class="er attributeBoxOdd"></rect><text style="dominant-baseline: middle; font-size: 10.2px;" transform="translate(31.796875,81.5)" y="0" x="0" id="text-entity-dbodefending-27d04c22-11ac-5bec-8195-8e0c8a368db7-attr-3-name" class="er entityLabel">effectiveness</text><rect height="23" width="39.99476623535156" y="70" x="97.546875" class="er attributeBoxOdd"></rect><text style="dominant-baseline: middle; font-size: 10.2px;" transform="translate(102.546875,81.5)" y="0" x="0" id="text-entity-dbodefending-27d04c22-11ac-5bec-8195-8e0c8a368db7-attr-3-comment" class="er entityLabel"></text></g><rect height="14" width="59.79296875" y="147.59573364257812" x="8.25571060180664" class="er relationshipLabelBox"></rect><text style="text-anchor: middle; dominant-baseline: middle; font-size: 12px;" y="154.59573364257812" x="38.15219497680664" id="rel1" class="er relationshipLabel">pokemonid</text><rect height="14" width="39.279296875" y="130.61631774902344" x="334.17572021484375" class="er relationshipLabelBox"></rect><text style="text-anchor: middle; dominant-baseline: middle; font-size: 12px;" y="137.61631774902344" x="353.81536865234375" id="rel2" class="er relationshipLabel">moveid</text><rect height="14" width="59.79296875" y="128.83734130859375" x="231.14175415039062" class="er relationshipLabelBox"></rect><text style="text-anchor: middle; dominant-baseline: middle; font-size: 12px;" y="135.83734130859375" x="261.0382385253906" id="rel3" class="er relationshipLabel">pokemonid</text><rect height="14" width="41.505859375" y="137.5426025390625" x="638.0947875976562" class="er relationshipLabelBox"></rect><text style="text-anchor: middle; dominant-baseline: middle; font-size: 12px;" y="144.5426025390625" x="658.8477172851562" id="rel4" class="er relationshipLabel">abilityid</text><rect height="14" width="59.79296875" y="150.45997619628906" x="353.4598083496094" class="er relationshipLabelBox"></rect><text style="text-anchor: middle; dominant-baseline: middle; font-size: 12px;" y="157.45997619628906" x="383.3562927246094" id="rel5" class="er relationshipLabel">pokemonid</text><rect height="14" width="33.599609375" y="174.1118621826172" x="918.5198364257812" class="er relationshipLabelBox"></rect><text style="text-anchor: middle; dominant-baseline: middle; font-size: 12px;" y="181.1118621826172" x="935.3196411132812" id="rel6" class="er relationshipLabel">typeid</text><rect height="14" width="39.279296875" y="129.17710876464844" x="649.40771484375" class="er relationshipLabelBox"></rect><text style="text-anchor: middle; dominant-baseline: middle; font-size: 12px;" y="136.17710876464844" x="669.04736328125" id="rel7" class="er relationshipLabel">moveid</text><rect height="14" width="33.599609375" y="175.04835510253906" x="1063.724853515625" class="er relationshipLabelBox"></rect><text style="text-anchor: middle; dominant-baseline: middle; font-size: 12px;" y="182.04835510253906" x="1080.524658203125" id="rel8" class="er relationshipLabel">typeid</text><rect height="14" width="33.599609375" y="186.2669677734375" x="1206.4000244140625" class="er relationshipLabelBox"></rect><text style="text-anchor: middle; dominant-baseline: middle; font-size: 12px;" y="193.2669677734375" x="1223.1998291015625" id="rel9" class="er relationshipLabel">typeid</text><rect height="14" width="33.599609375" y="186.2669677734375" x="1206.4000244140625" class="er relationshipLabelBox"></rect><text style="text-anchor: middle; dominant-baseline: middle; font-size: 12px;" y="193.2669677734375" x="1223.1998291015625" id="rel10" class="er relationshipLabel">typeid</text><rect height="14" width="33.599609375" y="206.24586486816406" x="1347.9647216796875" class="er relationshipLabelBox"></rect><text style="text-anchor: middle; dominant-baseline: middle; font-size: 12px;" y="213.24586486816406" x="1364.7645263671875" id="rel11" class="er relationshipLabel">typeid</text><rect height="14" width="33.599609375" y="206.24586486816406" x="1347.9647216796875" class="er relationshipLabelBox"></rect><text style="text-anchor: middle; dominant-baseline: middle; font-size: 12px;" y="213.24586486816406" x="1364.7645263671875" id="rel12" class="er relationshipLabel">typeid</text></svg>